HIERARCHY
ROOT Hips
{
	OFFSET 0.00000 0.00000 0.00000
	CHANNELS 6 Xposition Yposition Zposition Zrotation Yrotation Xrotation 
	JOINT LHipJoint
	{
		OFFSET 0 0 0
		CHANNELS 3 Zrotation Yrotation Xrotation
		JOINT LeftHip
		{
			OFFSET 1.64549 -1.70879 0.84566
			CHANNELS 3 Zrotation Yrotation Xrotation
			JOINT LeftKnee
			{
				OFFSET 2.24963 -6.18082 0.00000
				CHANNELS 3 Zrotation Yrotation Xrotation
				JOINT LeftAnkle
				{
					OFFSET 2.71775 -7.46697 0.00000
					CHANNELS 3 Zrotation Yrotation Xrotation
					JOINT LeftToe
					{
						OFFSET 0.18768 -0.51564 2.24737
						CHANNELS 3 Zrotation Yrotation Xrotation
						End Site
						{
							OFFSET 0.00000 -0.00000 1.15935
						}
					}
				}
			}
		}
	}
	JOINT RHipJoint
	{
		OFFSET 0 0 0
		CHANNELS 3 Zrotation Yrotation Xrotation
		JOINT RightHip
		{
			OFFSET -1.58830 -1.70879 0.84566
			CHANNELS 3 Zrotation Yrotation Xrotation
			JOINT RightKnee
			{
				OFFSET -2.25006 -6.18201 0.00000
				CHANNELS 3 Zrotation Yrotation Xrotation
				JOINT RightAnkle
				{
					OFFSET -2.72829 -7.49593 0.00000
					CHANNELS 3 Zrotation Yrotation Xrotation
					JOINT RightToe
					{
						OFFSET -0.21541 -0.59185 2.10643
						CHANNELS 3 Zrotation Yrotation Xrotation
						End Site
						{
							OFFSET -0.00000 -0.00000 1.09838
						}
					}
				}
			}
		}
	}
	JOINT lowerback
	{
		OFFSET 0 0 0
		CHANNELS 3 Zrotation Yrotation Xrotation
		JOINT Chest
		{
			OFFSET 0.03142 2.10496 -0.11038
			CHANNELS 3 Zrotation Yrotation Xrotation
			JOINT Chest2
			{
				OFFSET -0.01863 2.10897 -0.06956
				CHANNELS 3 Zrotation Yrotation Xrotation
				JOINT lowerneck
				{
					OFFSET 0 0 0
					CHANNELS 3 Zrotation Yrotation Xrotation
					JOINT Neck
					{
						OFFSET -0.02267 1.73238 0.00451
						CHANNELS 3 Zrotation Yrotation Xrotation
						JOINT Head
						{
							OFFSET -0.05808 1.54724 -0.61749
							CHANNELS 3 Zrotation Yrotation Xrotation
							End Site
							{
								OFFSET -0.01396 1.71468 -0.21082
							}
						}
					}
				}
				JOINT LeftCollar
				{
					OFFSET 0 0 0
					CHANNELS 3 Zrotation Yrotation Xrotation
					JOINT LeftShoulder
					{
						OFFSET 3.44898 0.50298 0.21920
CHANNELS 3 Zrotation Xrotation Yrotation
						JOINT LeftElbow
						{
OFFSET 0 -5.419170 -0.000000
CHANNELS 3 Zrotation Xrotation Yrotation
							JOINT LeftWrist
							{
OFFSET 0 -2.443730 0.000000
CHANNELS 3 Zrotation Xrotation Yrotation
								JOINT lhand
								{
									OFFSET 0 0 0
CHANNELS 3 Zrotation Xrotation Yrotation
									JOINT LFingers
									{
OFFSET 0 -0.727500 0.000000
CHANNELS 3 Zrotation Xrotation Yrotation
										End Site
										{
OFFSET 0 -0.586530 0.000000
										}
									}
								}
								JOINT LThumb
								{
OFFSET 0 0.000000 0.000000
CHANNELS 3 Zrotation Xrotation Yrotation
									End Site
									{
OFFSET 0 -0.595490 0.595490
									}
								}
							}
						}
					}
				}
				JOINT RightCollar
				{
					OFFSET 0 0 0
					CHANNELS 3 Zrotation Yrotation Xrotation
					JOINT RightShoulder
					{
						OFFSET -3.23015 0.55830 0.31051
CHANNELS 3 Zrotation Xrotation Yrotation
						JOINT RightElbow
						{
OFFSET 0 -5.589760 0.000140
CHANNELS 3 Zrotation Xrotation Yrotation
							JOINT RightWrist
							{
OFFSET 0 -2.480600 0.000000
CHANNELS 3 Zrotation Xrotation Yrotation
								JOINT rhand
								{
									OFFSET 0 0 0
CHANNELS 3 Zrotation Xrotation Yrotation
									JOINT RFingers
									{
OFFSET 0 -0.816010 0.000000
CHANNELS 3 Zrotation Xrotation Yrotation
										End Site
										{
OFFSET 0 -0.657890 0.000000
										}
									}
								}
								JOINT RThumb
								{
OFFSET 0 0.000000 0.000000
CHANNELS 3 Zrotation Xrotation Yrotation
									End Site
									{
OFFSET 0 -0.667930 0.667930
									}
								}
							}
						}
					}
				}
			}
		}
	}
}
MOTION
Frames: 7
Frame Time: 0.008333333333333333
0.490900 16.651700 36.763600 -178.965000 2.009400 -152.389000 0.000000 0.000000 0.000000 -23.465200 -18.421300 -45.519900 5.129000 13.527600 41.376900 5.301300 7.965500 -46.578300 0.716800 5.410500 15.083100 0.000000 0.000000 0.000000 29.750800 -8.907300 -37.316100 -9.700000 -17.237700 58.480900 2.448900 -33.320200 9.538300 -2.461700 -9.767900 28.228400 -5.857200 -0.934600 -17.120800 -0.517600 1.706400 -10.885400 2.967400 2.067800 -2.167500 -2.737800 -0.809900 -13.104600 3.411600 -3.787800 30.154300 1.045100 -2.398600 12.211700 -0.000000 -0.000000 0.000000 3.702100 16.776400 0.853000 13.563100 -22.106700 2.661500 9.436800 6.757700 -17.350500 0.000000 0.000000 0.000000 -7.125000 0.000000 0.000000 -17.509500 46.771800 0.789200 -0.000000 -0.000000 0.000000 -6.270600 14.391300 28.003600 -7.739500 -13.129700 -0.892000 -4.905600 3.689000 -14.550100 0.000000 0.000000 0.000000 7.125000 0.000000 -0.000000 15.287200 15.705800 10.981400
0.496628 16.656071 36.792390 -178.975811 1.778433 -152.234648 0.000000 0.000000 0.000000 -23.243457 -18.756448 -45.813362 5.134387 13.533535 41.399946 5.205700 8.493744 -46.416971 0.671776 5.240853 14.596868 0.000000 0.000000 0.000000 29.883558 -8.803013 -37.791958 -9.758640 -17.271830 58.678521 2.470424 -31.722705 6.902455 -2.463564 -9.771323 28.239308 -5.936850 -1.103827 -17.075585 -0.363266 1.498490 -10.926897 3.142721 1.980515 -2.224027 -2.780426 -0.666179 -13.556063 3.266343 -3.563383 30.602050 1.022631 -2.326779 12.476467 0.000000 0.000000 0.000000 3.869879 16.345746 0.494290 13.411273 -21.886791 2.604687 9.061983 6.957244 -16.754882 0.000000 0.000000 0.000000 -7.125000 0.000000 0.000000 -17.629619 46.152579 0.517242 0.000000 0.000000 0.000000 -6.598887 14.096107 27.628159 -7.401664 -12.578334 -0.816932 -4.247965 5.213848 -13.713921 0.000000 0.000000 0.000000 7.125000 0.000000 0.000000 15.779774 16.541028 11.064447
0.499852 16.656962 36.809373 -179.058104 1.653768 -152.256643 0.000000 0.000000 0.000000 -23.300216 -18.848465 -45.800709 5.131354 13.530258 41.387177 5.176037 8.487576 -46.295149 0.594223 4.934078 13.720955 0.000000 0.000000 0.000000 29.818762 -8.946647 -38.120077 -9.822178 -17.308628 58.892437 2.457700 -33.097381 9.077240 -2.647915 -10.095948 29.293497 -6.012484 -1.201296 -17.043672 -0.291688 1.390543 -10.978192 3.242517 1.942639 -2.290337 -2.769631 -0.581180 -13.525504 3.002296 -3.431707 30.906642 0.935126 -2.322380 12.583448 0.000000 0.000000 0.000000 4.151442 16.356268 -0.422807 13.432665 -21.917884 2.612634 8.592184 6.515690 -16.742393 0.000000 0.000000 0.000000 -7.125000 0.000000 0.000000 -18.047533 46.081954 0.498158 0.000000 0.000000 0.000000 -6.881361 14.223826 27.355290 -7.144313 -12.156528 -0.761778 -3.844625 6.531865 -13.059426 0.000000 0.000000 0.000000 7.125000 0.000000 0.000000 16.096341 17.187003 11.069407
0.500997 16.660050 36.818371 -179.073471 1.847611 -152.316282 0.000000 0.000000 0.000000 -23.317112 -18.956244 -45.730222 5.131900 13.530853 41.389492 5.192855 8.782407 -46.489014 0.609705 4.997843 13.902460 0.000000 0.000000 0.000000 29.614105 -8.787832 -38.257878 -9.894604 -17.350171 59.135478 2.459137 -32.305096 7.929817 -2.649788 -10.105134 29.317953 -6.006394 -1.166026 -17.190662 -0.310831 1.483214 -11.087042 3.232089 2.009002 -2.340922 -2.826246 -0.469570 -13.259843 2.951672 -3.388161 31.353952 0.925392 -2.364205 12.709811 0.000000 0.000000 0.000000 4.565432 16.700244 -1.779007 13.533161 -22.063391 2.650171 8.458792 5.689364 -16.736823 0.000000 0.000000 0.000000 -7.125000 0.000000 0.000000 -18.165134 46.059962 0.491169 0.000000 0.000000 0.000000 -7.013265 14.690147 27.016593 -7.064397 -12.025108 -0.745030 -2.981892 7.947033 -12.670771 0.000000 0.000000 0.000000 7.125000 0.000000 0.000000 16.706463 17.588757 11.372383
0.500646 16.657075 36.830929 -179.007544 1.985440 -152.324082 0.000000 0.000000 0.000000 -23.246844 -19.006232 -45.790507 5.145429 13.545695 41.447218 5.218816 8.695038 -46.555209 0.540802 4.711096 13.086448 0.000000 0.000000 0.000000 29.515735 -8.542612 -38.351093 -9.945240 -17.378957 59.305190 2.304370 -32.502436 9.404755 -2.436841 -9.721834 28.080682 -5.825397 -1.159774 -17.353513 -0.302684 1.487677 -11.103184 3.144346 2.004718 -2.269026 -3.267548 -0.344945 -13.403185 3.283776 -3.383864 32.116222 1.118141 -2.426350 13.072452 0.000000 0.000000 0.000000 4.931774 16.793780 -2.893443 13.615725 -22.182777 2.681328 7.820452 4.883751 -16.815249 0.000000 0.000000 0.000000 -7.125000 0.000000 0.000000 -18.766634 46.055353 0.506632 0.000000 0.000000 0.000000 -7.137866 14.659739 26.103954 -6.677375 -11.387017 -0.666492 -2.168725 10.012077 -12.665488 0.000000 0.000000 0.000000 7.125000 0.000000 0.000000 17.251875 17.617853 11.768794
0.503463 16.654244 36.835779 -179.000633 1.877540 -152.543912 0.000000 0.000000 0.000000 -23.236955 -19.062947 -45.552571 5.150325 13.551116 41.468103 5.214787 8.915032 -46.633733 0.458503 4.343586 12.045405 0.000000 0.000000 0.000000 29.474960 -8.636105 -38.174769 -9.976529 -17.396637 59.409861 2.359143 -33.375985 10.148428 -2.713739 -10.216216 29.679994 -5.680533 -1.228517 -17.498209 -0.256773 1.383056 -11.055348 3.102758 1.939120 -2.129031 -3.297633 -0.171215 -13.114918 3.182624 -3.188748 32.340160 1.109942 -2.392440 13.094171 0.000000 0.000000 0.000000 5.212477 16.702758 -3.213486 13.461074 -21.958920 2.623222 7.307601 4.822731 -17.019650 0.000000 0.000000 0.000000 -7.125000 0.000000 0.000000 -19.303164 46.185305 0.586127 0.000000 0.000000 0.000000 -7.213349 14.679872 24.578963 -6.285959 -10.738164 -0.591454 -1.633687 12.663707 -12.332327 0.000000 0.000000 0.000000 7.125000 0.000000 0.000000 17.640724 17.949725 11.924679
0.507294 16.648975 36.836600 -179.097058 1.767442 -152.682816 0.000000 0.000000 0.000000 -23.415781 -18.920132 -45.415859 5.136395 13.535714 41.408511 5.216045 8.448332 -46.439066 0.533458 4.679119 12.995684 0.000000 0.000000 0.000000 29.325907 -8.668374 -38.167185 -10.022872 -17.422661 59.564726 2.369314 -33.523559 10.369499 -2.505159 -9.841424 28.469685 -5.734332 -1.384895 -17.722479 -0.138913 1.207211 -11.026818 3.239559 1.855989 -1.970507 -3.457219 0.010231 -12.870600 3.124526 -2.950436 32.546834 1.147471 -2.347323 13.119055 0.000000 0.000000 0.000000 5.383918 16.821468 -3.541606 13.331669 -21.771219 2.574994 6.379694 4.486988 -16.839452 0.000000 0.000000 0.000000 -7.125000 0.000000 0.000000 -20.062043 45.899791 0.464069 0.000000 0.000000 0.000000 -7.500768 14.784818 24.145648 -6.073199 -10.384131 -0.552427 -0.998703 14.038277 -11.919951 0.000000 0.000000 0.000000 7.125000 0.000000 0.000000 18.105911 18.356686 12.101678
